# xmcd
#
# Track frame offsets:
#	150
#	28940
#	48386
#	76601
#	109954
#	136947
#	155291
#	181309
#	202824
#	223714
#
# Disc length: 3270 seconds
#
# Revision: 0
# Processed by: cddbd v1.5.2PL0 Copyright (c) Steve Scherf et al.
# Submitted via: EasyCDDAExtractor 16.0.6.1
#
DISCID=7f0cc40a
DTITLE=JR Clark - Icicles On My Ceiling
DYEAR=1900
DGENRE=
TTITLE0=Icicles On My Ceiling 
TTITLE1=I Need Some Love 
TTITLE2=Tribute to the Boogie 
TTITLE3=The Day You Walked Out On Me 
TTITLE4=I Can't Have It 
TTITLE5=Married Woman Creepin' 
TTITLE6=Sunday Morning 
TTITLE7=Where Have You Gone With My Love 
TTITLE8=How Many More Times 
TTITLE9=One Eyed Woman 
EXTD=
EXTT0=
EXTT1=
EXTT2=
EXTT3=
EXTT4=
EXTT5=
EXTT6=
EXTT7=
EXTT8=
EXTT9=
PLAYORDER=
